<svg width="180" height="26" viewBox="0 0 180 26" fill="none" xmlns="http://www.w3.org/2000/svg">
<path d="M2.74636 6.82617C2.5541 6.82617 2.36972 6.90356 2.23377 7.0413C2.09783 7.17905 2.02145 7.36587 2.02145 7.56068V16.4417C2.02187 17.5699 2.46187 18.6523 3.24578 19.4535C4.02968 20.2547 5.09408 20.7099 6.20748 20.7201H7.22879C6.96519 20.7086 6.7161 20.5946 6.53322 20.4019C6.35033 20.2093 6.24769 19.9526 6.2466 19.6853V7.56068C6.2466 7.36603 6.17034 7.17934 6.03459 7.04161C5.89883 6.90389 5.71467 6.82641 5.52256 6.82617H2.74636Z" fill="url(#paint0_linear_69_11016)"/>
<path d="M2.02145 16.4414V20.1007C2.02111 20.7441 2.14592 21.3813 2.38874 21.9758C2.63156 22.5703 2.98764 23.1105 3.43661 23.5655C3.88559 24.0205 4.41867 24.3814 5.00537 24.6276C5.59207 24.8737 6.2209 25.0003 6.8559 25.0001H16.643C17.702 24.9135 18.69 24.4258 19.41 23.6342C20.1301 22.8426 20.5293 21.8052 20.5283 20.7287V19.6771C20.5262 19.9527 20.4167 20.2162 20.2236 20.4103C20.0304 20.6043 19.7694 20.713 19.4974 20.7128L7.23139 20.7199H6.25181C5.13123 20.7203 4.05631 20.2699 3.26337 19.4676C2.47042 18.6653 2.02435 17.5768 2.02319 16.4414H2.02145Z" fill="url(#paint1_linear_69_11016)"/>
<path d="M7.25066 1.00001H1.14632C0.789954 1.00001 0.528328 1.2968 0.509205 1.65701C0.467996 2.62218 0.305598 3.57809 0.0259343 4.50167C-0.0827148 4.8883 0.160659 5.2943 0.557011 5.2943H19.4906C22.3346 5.32337 24.751 7.65194 24.751 10.5935V5.90551C24.751 4.9199 24.4581 3.95712 23.9103 3.14261C23.3626 2.32811 22.5854 1.69964 21.6801 1.33908L21.6427 1.32498L21.628 1.31882C21.0789 1.10713 20.4962 0.999082 19.9087 1.00001H7.25066Z" fill="url(#paint2_linear_69_11016)"/>
<path d="M20.5205 6.33258H20.5266V19.6629V20.7144C20.5274 21.7909 20.1281 22.8282 19.4081 23.6197C18.6881 24.4113 17.7003 24.899 16.6413 24.9858C16.5292 24.9946 16.4171 24.9999 16.3032 24.9999H19.9156C20.5506 25.0005 21.1795 24.8742 21.7663 24.6282C22.3531 24.3823 22.8863 24.0215 23.3353 23.5665C23.7843 23.1115 24.1404 22.5713 24.3832 21.9767C24.6259 21.3821 24.7506 20.7449 24.75 20.1015V10.6286C24.7502 9.21739 24.1982 7.86363 23.2149 6.86416C22.2316 5.86469 20.8972 5.30107 19.5044 5.29688C19.7743 5.29874 20.0325 5.40867 20.2227 5.60271C20.4129 5.79674 20.5197 6.05911 20.5196 6.33258" fill="url(#paint3_linear_69_11016)"/>
<path d="M40.671 20.24C39.271 20.24 38.0443 19.9333 36.991 19.32C35.951 18.7067 35.131 17.86 34.531 16.78C33.9443 15.6867 33.651 14.4267 33.651 13C33.651 11.5733 33.9443 10.32 34.531 9.24C35.131 8.14667 35.951 7.29333 36.991 6.68C38.0443 6.06667 39.271 5.76 40.671 5.76C42.0576 5.76 43.2776 6.06667 44.331 6.68C45.3843 7.29333 46.2043 8.14667 46.791 9.24C47.3776 10.32 47.671 11.5733 47.671 13C47.671 14.4267 47.3776 15.6867 46.791 16.78C46.2043 17.86 45.3843 18.7067 44.331 19.32C43.2776 19.9333 42.0576 20.24 40.671 20.24ZM40.671 17.94C42.0043 17.94 43.0643 17.5 43.851 16.62C44.651 15.74 45.051 14.5333 45.051 13C45.051 11.4667 44.651 10.26 43.851 9.38C43.0643 8.5 42.0043 8.06 40.671 8.06C39.3376 8.06 38.271 8.5 37.471 9.38C36.671 10.26 36.271 11.4667 36.271 13C36.271 14.5333 36.671 15.74 37.471 16.62C38.271 17.5 39.3376 17.94 40.671 17.94ZM55.4513 20.24C54.1313 20.24 52.978 19.94 51.9913 19.34C51.0046 18.74 50.238 17.9067 49.6913 16.84C49.1446 15.76 48.8713 14.5067 48.8713 13.08C48.8713 11.64 49.1513 10.3733 49.7113 9.28C50.2846 8.17333 51.0913 7.31333 52.1313 6.7C53.1846 6.07333 54.4313 5.76 55.8713 5.76C57.5113 5.76 58.8713 6.15333 59.9513 6.94C61.0313 7.72667 61.7313 8.81333 62.0513 10.2H59.1913C58.978 9.54667 58.5913 9.04 58.0313 8.68C57.4713 8.30667 56.7513 8.12 55.8713 8.12C54.4713 8.12 53.3913 8.56667 52.6313 9.46C51.8713 10.34 51.4913 11.5533 51.4913 13.1C51.4913 14.6467 51.8646 15.8467 52.6113 16.7C53.3713 17.54 54.398 17.96 55.6913 17.96C56.958 17.96 57.9113 17.62 58.5513 16.94C59.2046 16.2467 59.598 15.34 59.7313 14.22H56.1913V12.3H62.3113V20H59.9513L59.7513 18.16C59.298 18.8267 58.7313 19.34 58.0513 19.7C57.3713 20.06 56.5046 20.24 55.4513 20.24ZM67.0193 20V15.02L62.3193 6H65.2193L68.3193 12.46L71.3993 6H74.2593L69.5793 15.02V20H67.0193ZM79.4649 20V6H84.2449C85.8849 6 87.2315 6.29333 88.2849 6.88C89.3515 7.45333 90.1382 8.26667 90.6449 9.32C91.1649 10.36 91.4249 11.5867 91.4249 13C91.4249 14.4133 91.1649 15.6467 90.6449 16.7C90.1382 17.74 89.3515 18.5533 88.2849 19.14C87.2315 19.7133 85.8849 20 84.2449 20H79.4649ZM82.0249 17.8H84.1249C85.2982 17.8 86.2249 17.6133 86.9049 17.24C87.5849 16.8533 88.0715 16.3067 88.3649 15.6C88.6582 14.88 88.8049 14.0133 88.8049 13C88.8049 12 88.6582 11.14 88.3649 10.42C88.0715 9.7 87.5849 9.14667 86.9049 8.76C86.2249 8.37333 85.2982 8.18 84.1249 8.18H82.0249V17.8ZM96.4436 20.24C95.5903 20.24 94.8903 20.1067 94.3436 19.84C93.797 19.56 93.3903 19.1933 93.1236 18.74C92.857 18.2867 92.7236 17.7867 92.7236 17.24C92.7236 16.32 93.0836 15.5733 93.8036 15C94.5236 14.4267 95.6036 14.14 97.0436 14.14H99.5636V13.9C99.5636 13.22 99.3703 12.72 98.9836 12.4C98.597 12.08 98.117 11.92 97.5436 11.92C97.0236 11.92 96.5703 12.0467 96.1836 12.3C95.797 12.54 95.557 12.9 95.4636 13.38H92.9636C93.0303 12.66 93.2703 12.0333 93.6836 11.5C94.1103 10.9667 94.657 10.56 95.3236 10.28C95.9903 9.98667 96.737 9.84 97.5636 9.84C98.977 9.84 100.09 10.1933 100.904 10.9C101.717 11.6067 102.124 12.6067 102.124 13.9V20H99.9436L99.7036 18.4C99.4103 18.9333 98.997 19.3733 98.4636 19.72C97.9436 20.0667 97.2703 20.24 96.4436 20.24ZM97.0236 18.24C97.757 18.24 98.3236 18 98.7236 17.52C99.137 17.04 99.397 16.4467 99.5036 15.74H97.3236C96.6436 15.74 96.157 15.8667 95.8636 16.12C95.5703 16.36 95.4236 16.66 95.4236 17.02C95.4236 17.4067 95.5703 17.7067 95.8636 17.92C96.157 18.1333 96.5436 18.24 97.0236 18.24ZM108.067 20.24C107.187 20.24 106.413 20.1 105.747 19.82C105.08 19.5267 104.547 19.1267 104.147 18.62C103.747 18.1133 103.507 17.5267 103.427 16.86H106.007C106.087 17.2467 106.3 17.58 106.647 17.86C107.007 18.1267 107.467 18.26 108.027 18.26C108.587 18.26 108.993 18.1467 109.247 17.92C109.513 17.6933 109.647 17.4333 109.647 17.14C109.647 16.7133 109.46 16.4267 109.087 16.28C108.713 16.12 108.193 15.9667 107.527 15.82C107.1 15.7267 106.667 15.6133 106.227 15.48C105.787 15.3467 105.38 15.18 105.007 14.98C104.647 14.7667 104.353 14.5 104.127 14.18C103.9 13.8467 103.787 13.44 103.787 12.96C103.787 12.08 104.133 11.34 104.827 10.74C105.533 10.14 106.52 9.84 107.787 9.84C108.96 9.84 109.893 10.1133 110.587 10.66C111.293 11.2067 111.713 11.96 111.847 12.92H109.427C109.28 12.1867 108.727 11.82 107.767 11.82C107.287 11.82 106.913 11.9133 106.647 12.1C106.393 12.2867 106.267 12.52 106.267 12.8C106.267 13.0933 106.46 13.3267 106.847 13.5C107.233 13.6733 107.747 13.8333 108.387 13.98C109.08 14.14 109.713 14.32 110.287 14.52C110.873 14.7067 111.34 14.9933 111.687 15.38C112.033 15.7533 112.207 16.2933 112.207 17C112.22 17.6133 112.06 18.1667 111.727 18.66C111.393 19.1533 110.913 19.54 110.287 19.82C109.66 20.1 108.92 20.24 108.067 20.24ZM113.874 20V5.6H116.434V11.6C116.768 11.0533 117.214 10.6267 117.774 10.32C118.348 10 119.001 9.84 119.734 9.84C120.961 9.84 121.908 10.2267 122.574 11C123.254 11.7733 123.594 12.9067 123.594 14.4V20H121.054V14.64C121.054 13.7867 120.881 13.1333 120.534 12.68C120.201 12.2267 119.668 12 118.934 12C118.214 12 117.614 12.2533 117.134 12.76C116.668 13.2667 116.434 13.9733 116.434 14.88V20H113.874ZM131.322 20.24C130.576 20.24 129.922 20.1 129.362 19.82C128.802 19.54 128.349 19.1467 128.002 18.64L127.722 20H125.442V5.6H128.002V11.5C128.322 11.06 128.742 10.6733 129.262 10.34C129.796 10.0067 130.482 9.84 131.322 9.84C132.256 9.84 133.089 10.0667 133.822 10.52C134.556 10.9733 135.136 11.5933 135.562 12.38C135.989 13.1667 136.202 14.06 136.202 15.06C136.202 16.06 135.989 16.9533 135.562 17.74C135.136 18.5133 134.556 19.1267 133.822 19.58C133.089 20.02 132.256 20.24 131.322 20.24ZM130.782 18C131.596 18 132.269 17.7267 132.802 17.18C133.336 16.6333 133.602 15.9267 133.602 15.06C133.602 14.1933 133.336 13.48 132.802 12.92C132.269 12.36 131.596 12.08 130.782 12.08C129.956 12.08 129.276 12.36 128.742 12.92C128.222 13.4667 127.962 14.1733 127.962 15.04C127.962 15.9067 128.222 16.62 128.742 17.18C129.276 17.7267 129.956 18 130.782 18ZM142.649 20.24C141.689 20.24 140.823 20.02 140.049 19.58C139.289 19.14 138.683 18.5333 138.229 17.76C137.789 16.9733 137.569 16.0667 137.569 15.04C137.569 14.0133 137.796 13.1133 138.249 12.34C138.703 11.5533 139.309 10.94 140.069 10.5C140.843 10.06 141.709 9.84 142.669 9.84C143.616 9.84 144.469 10.06 145.229 10.5C146.003 10.94 146.609 11.5533 147.049 12.34C147.503 13.1133 147.729 14.0133 147.729 15.04C147.729 16.0667 147.503 16.9733 147.049 17.76C146.609 18.5333 146.003 19.14 145.229 19.58C144.456 20.02 143.596 20.24 142.649 20.24ZM142.649 18.02C143.316 18.02 143.896 17.7733 144.389 17.28C144.883 16.7733 145.129 16.0267 145.129 15.04C145.129 14.0533 144.883 13.3133 144.389 12.82C143.896 12.3133 143.323 12.06 142.669 12.06C141.989 12.06 141.403 12.3133 140.909 12.82C140.429 13.3133 140.189 14.0533 140.189 15.04C140.189 16.0267 140.429 16.7733 140.909 17.28C141.403 17.7733 141.983 18.02 142.649 18.02ZM152.838 20.24C151.985 20.24 151.285 20.1067 150.738 19.84C150.191 19.56 149.785 19.1933 149.518 18.74C149.251 18.2867 149.118 17.7867 149.118 17.24C149.118 16.32 149.478 15.5733 150.198 15C150.918 14.4267 151.998 14.14 153.438 14.14H155.958V13.9C155.958 13.22 155.765 12.72 155.378 12.4C154.991 12.08 154.511 11.92 153.938 11.92C153.418 11.92 152.965 12.0467 152.578 12.3C152.191 12.54 151.951 12.9 151.858 13.38H149.358C149.425 12.66 149.665 12.0333 150.078 11.5C150.505 10.9667 151.051 10.56 151.718 10.28C152.385 9.98667 153.131 9.84 153.958 9.84C155.371 9.84 156.485 10.1933 157.298 10.9C158.111 11.6067 158.518 12.6067 158.518 13.9V20H156.338L156.098 18.4C155.805 18.9333 155.391 19.3733 154.858 19.72C154.338 20.0667 153.665 20.24 152.838 20.24ZM153.418 18.24C154.151 18.24 154.718 18 155.118 17.52C155.531 17.04 155.791 16.4467 155.898 15.74H153.718C153.038 15.74 152.551 15.8667 152.258 16.12C151.965 16.36 151.818 16.66 151.818 17.02C151.818 17.4067 151.965 17.7067 152.258 17.92C152.551 18.1333 152.938 18.24 153.418 18.24ZM160.361 20V10.08H162.641L162.881 11.94C163.241 11.3 163.728 10.7933 164.341 10.42C164.968 10.0333 165.701 9.84 166.541 9.84V12.54H165.821C165.261 12.54 164.761 12.6267 164.321 12.8C163.881 12.9733 163.534 13.2733 163.281 13.7C163.041 14.1267 162.921 14.72 162.921 15.48V20H160.361ZM172.075 20.24C171.142 20.24 170.308 20.0133 169.575 19.56C168.842 19.1067 168.262 18.4867 167.835 17.7C167.408 16.9133 167.195 16.02 167.195 15.02C167.195 14.02 167.408 13.1333 167.835 12.36C168.262 11.5733 168.842 10.96 169.575 10.52C170.308 10.0667 171.142 9.84 172.075 9.84C172.822 9.84 173.475 9.98 174.035 10.26C174.595 10.54 175.048 10.9333 175.395 11.44V5.6H177.955V20H175.675L175.395 18.58C175.075 19.02 174.648 19.4067 174.115 19.74C173.595 20.0733 172.915 20.24 172.075 20.24ZM172.615 18C173.442 18 174.115 17.7267 174.635 17.18C175.168 16.62 175.435 15.9067 175.435 15.04C175.435 14.1733 175.168 13.4667 174.635 12.92C174.115 12.36 173.442 12.08 172.615 12.08C171.802 12.08 171.128 12.3533 170.595 12.9C170.062 13.4467 169.795 14.1533 169.795 15.02C169.795 15.8867 170.062 16.6 170.595 17.16C171.128 17.72 171.802 18 172.615 18Z" fill="#222526"/>
<defs>
<linearGradient id="paint0_linear_69_11016" x1="4.62555" y1="6.82617" x2="4.62555" y2="20.7201" gradientUnits="userSpaceOnUse">
<stop offset="0.03" stop-color="#05612D"/>
<stop offset="0.3" stop-color="#017E36"/>
<stop offset="0.33" stop-color="#138838"/>
<stop offset="0.4" stop-color="#2E963C"/>
<stop offset="0.48" stop-color="#41A13F"/>
<stop offset="0.55" stop-color="#4CA740"/>
<stop offset="0.63" stop-color="#50A941"/>
<stop offset="0.73" stop-color="#57AB3C"/>
<stop offset="0.88" stop-color="#6CAF30"/>
<stop offset="0.91" stop-color="#70B02D"/>
</linearGradient>
<linearGradient id="paint1_linear_69_11016" x1="20.5283" y1="20.7207" x2="2.02145" y2="20.7207" gradientUnits="userSpaceOnUse">
<stop offset="0.03" stop-color="#1F9CD4"/>
<stop offset="0.3" stop-color="#1470B1"/>
<stop offset="0.36" stop-color="#1A5EA2"/>
<stop offset="0.44" stop-color="#214B92"/>
<stop offset="0.53" stop-color="#254088"/>
<stop offset="0.63" stop-color="#263C85"/>
<stop offset="0.69" stop-color="#25397E"/>
<stop offset="0.79" stop-color="#223169"/>
<stop offset="0.9" stop-color="#1E2448"/>
<stop offset="0.91" stop-color="#1E2345"/>
</linearGradient>
<linearGradient id="paint2_linear_69_11016" x1="2.3771" y1="-1.78565" x2="24.5918" y2="10.8724" gradientUnits="userSpaceOnUse">
<stop stop-color="#EDE229"/>
<stop offset="0.44" stop-color="#F3A30F"/>
<stop offset="0.57" stop-color="#E96316"/>
<stop offset="0.68" stop-color="#E1321B"/>
<stop offset="0.73" stop-color="#DE1F1D"/>
<stop offset="0.84" stop-color="#DC1820"/>
<stop offset="1" stop-color="#DB1222"/>
</linearGradient>
<linearGradient id="paint3_linear_69_11016" x1="20.5283" y1="25.0017" x2="20.5283" y2="5.29688" gradientUnits="userSpaceOnUse">
<stop stop-color="#293170"/>
<stop offset="0.06" stop-color="#313272"/>
<stop offset="0.14" stop-color="#473577"/>
<stop offset="0.25" stop-color="#6A3A7F"/>
<stop offset="0.29" stop-color="#793C82"/>
<stop offset="0.44" stop-color="#803483"/>
<stop offset="0.66" stop-color="#852E83"/>
<stop offset="0.97" stop-color="#59132A"/>
<stop offset="1" stop-color="#551022"/>
</linearGradient>
</defs>
</svg>
