<svg width="482" height="241" viewBox="0 0 482 241" fill="none" xmlns="http://www.w3.org/2000/svg">
  <g clip-path="url(#clip0_207_322)">
    <path
      d="M364.859 0C337.992 0 308.572 14.6101 277.54 43.4283C262.898 56.9661 250.001 71.7102 240.598 83.3715C240.598 83.3715 255.643 100.662 272.167 119.294C281.167 108.034 293.929 92.7542 308.841 78.9483C336.38 53.213 354.381 47.9855 364.725 47.9855C403.414 47.9855 434.849 80.4227 434.849 120.5C434.849 160.175 403.414 192.612 364.725 193.014C362.844 193.014 360.695 192.746 358.008 192.21C369.292 197.438 381.517 201.191 392.935 201.191C463.865 201.191 477.836 152.267 478.642 148.782C480.657 139.801 481.866 130.419 481.866 120.768C481.732 54.1513 429.341 0 364.859 0Z"
      fill="url(#paint0_linear_207_322)" />
    <path
      d="M117.007 241C143.875 241 173.294 226.39 204.326 197.572C218.969 184.034 231.865 169.29 241.269 157.628C241.269 157.628 226.223 140.338 209.7 121.706C200.699 132.966 187.937 148.246 173.026 162.052C145.487 187.519 127.351 193.014 117.142 193.014C78.4526 193.014 47.0178 160.577 47.0178 120.5C47.0178 80.8248 78.4526 48.3877 117.142 47.9855C119.022 47.9855 121.172 48.2536 123.858 48.7898C112.574 43.5623 100.35 39.8092 88.9309 39.8092C18.0011 39.6752 4.0301 88.599 3.22408 92.218C1.20903 101.199 0 110.581 0 120.232C0 186.849 52.3913 241 117.007 241Z"
      fill="url(#paint1_linear_207_322)" />
    <path fill-rule="evenodd" clip-rule="evenodd"
      d="M171.01 80.0206C163.219 72.5145 125.336 41.8198 89.0651 40.7475C24.3148 39.139 5.37333 86.0523 3.62695 92.084C16.1203 39.5411 62.3321 0.268076 117.141 0C161.876 0 207.147 43.8304 240.597 83.3715L240.731 83.2375C240.731 83.2375 255.777 100.528 272.3 119.16C272.3 119.16 291.107 141.276 310.989 160.711C318.781 168.217 356.529 198.51 392.8 199.582C459.297 201.459 477.701 151.865 478.641 148.112C466.417 201.057 420.071 240.464 364.993 240.732C320.258 240.732 274.987 196.902 241.403 157.36C241.403 157.494 241.269 157.494 241.269 157.628C241.269 157.628 226.223 140.338 209.699 121.706C209.834 121.706 191.027 99.4561 171.01 80.0206Z"
      fill="#29ABE2" />
  </g>
  <defs>
    <linearGradient id="paint0_linear_207_322" x1="301.97" y1="19.0956" x2="467.21" y2="186.067"
      gradientUnits="userSpaceOnUse">
      <stop offset="0.21" stop-color="#F15A24" />
      <stop offset="0.6841" stop-color="#FBB03B" />
    </linearGradient>
    <linearGradient id="paint1_linear_207_322" x1="179.939" y1="221.932" x2="14.6993" y2="54.9608"
      gradientUnits="userSpaceOnUse">
      <stop offset="0.21" stop-color="#ED1E79" />
      <stop offset="0.8929" stop-color="#522785" />
    </linearGradient>
    <clipPath id="clip0_207_322">
      <rect width="482" height="241" fill="white" />
    </clipPath>
  </defs>
</svg>