<svg width="331" height="332" viewBox="0 0 331 332" fill="none" xmlns="http://www.w3.org/2000/svg">
  <path
    d="M317.183 206.872H303.404V41.3745C303.404 18.5214 284.883 0 262.03 0H68.9365C46.0834 0 27.562 18.5214 27.562 41.3745V206.91H13.783C6.16527 206.91 0.00390625 213.108 0.00390625 220.689C0.00390625 228.269 6.16527 234.468 13.783 234.468H97.3161L43.9176 309.226C39.5113 315.424 40.9676 324.05 47.1663 328.494C53.365 332.9 61.9909 331.444 66.3972 325.245L131.036 234.468H151.723V317.217C151.723 324.834 157.884 330.996 165.502 330.996C173.119 330.996 179.281 324.834 179.281 317.217V234.468H199.968L264.793 325.245C269.237 331.444 277.825 332.9 284.024 328.494C290.223 324.088 291.679 315.462 287.273 309.226L233.688 234.468H317.221C324.838 234.468 331 228.306 331 220.689C331 213.071 324.838 206.91 317.221 206.91L317.183 206.872ZM275.809 206.872H55.1574V167.962L110.311 115.759L169.833 175.207C175.211 180.547 183.911 180.547 189.288 175.207L221.962 142.608L275.809 186.185V206.872ZM275.809 150.599L229.281 113.369C223.792 109 215.913 109.448 210.947 114.415L179.281 146.006L120.02 86.8192C114.68 81.6287 106.129 81.6287 100.789 86.8192L55.1201 129.949V41.3745C55.1201 33.7568 61.2814 27.5954 68.8991 27.5954H261.992C269.61 27.5954 275.771 33.7941 275.771 41.3745V150.636L275.809 150.599Z"
    fill="white" />
</svg>