<svg width="432" height="309" viewBox="0 0 432 309" fill="none" xmlns="http://www.w3.org/2000/svg">
  <path
    d="M431.08 275.003L400.519 160.331C397.345 148.633 386.689 140.517 374.628 140.517H326.656C326.565 138.522 326.293 136.481 325.749 134.486L295.188 19.8147C292.014 8.16167 281.313 0 269.297 0H162.697C150.545 0 139.935 8.16166 136.806 19.8601L105.112 138.658C104.976 139.292 104.976 139.882 104.84 140.517H57.3206C45.2141 140.517 34.5586 148.678 31.43 160.377L0.914388 274.957C-1.26206 283.119 0.506305 291.598 5.58467 298.128C10.663 304.793 18.3713 308.647 26.805 308.647H194.482C202.916 308.647 210.669 304.838 215.748 298.173C215.838 298.037 215.929 297.855 216.02 297.674C216.11 297.81 216.201 297.991 216.292 298.128C221.37 304.793 229.124 308.602 237.512 308.602H405.189C413.532 308.602 421.286 304.793 426.409 298.173C431.533 291.507 433.211 283.074 431.034 275.003H431.08ZM163.422 27.7043H268.572L298.634 140.471H133.36L163.422 27.7043ZM27.9839 280.988L58.0914 168.13H163.286L193.575 280.897L27.9839 280.988ZM216.02 258.679L191.852 168.13H240.142L216.02 258.679ZM238.646 280.897L268.753 168.13H373.903L403.965 280.897H238.646Z"
    fill="white" />
</svg>