<svg width="482" height="690" fill="none" xmlns="http://www.w3.org/2000/svg"><path d="M54.163 111.612c-7.774 0-14.071 6.297-14.071 14.07v170.105h.04c.01 11.038 2.19 21.754 6.448 31.838a81.732 81.732 0 0017.596 26.082c7.532 7.533 16.31 13.458 26.093 17.586 9.862 4.178 20.327 6.348 31.124 6.448h19.775c-10.545-.472-19.062-9.159-19.062-19.826l-.03-232.243c0-7.773-6.297-14.07-14.071-14.07H54.163v.01z" fill="url(#prefix__paint0_linear_42_3239)"/><path d="M40.092 295.77v70.103c0 12.664 2.48 24.957 7.372 36.527 4.72 11.169 11.49 21.202 20.106 29.819 8.618 8.617 18.651 15.377 29.83 20.107 11.569 4.891 23.852 7.372 36.527 7.372h189.951a81.465 81.465 0 0025.279-6.187c9.772-4.128 18.55-10.053 26.082-17.596a82.048 82.048 0 0017.596-26.083c4.279-10.113 6.448-20.87 6.448-31.948v-20.147c0 10.958-9.049 19.836-20.016 19.836l-238.058.141h-19.003c-11.077 0-21.824-2.17-31.938-6.448-9.772-4.128-18.55-10.043-26.092-17.586a81.882 81.882 0 01-17.586-26.083 81.65 81.65 0 01-6.448-31.837h-.04l-.01.01z" fill="url(#prefix__paint1_linear_42_3239)"/><path d="M141.583 0H23.111c-6.92 0-11.992 5.685-12.374 12.594-1.205 21.664-3.696 34.63-9.37 54.486-2.11 7.402 2.611 15.155 10.314 15.155H379.15c55.208.563 102.101 45.165 102.101 101.509l-.04-89.798c0-39.742-24.687-73.739-59.568-87.448-.241-.1-.482-.19-.723-.281l-.291-.11C409.992 2.058 398.794 0 387.264 0H141.583z" fill="url(#prefix__paint2_linear_42_3239)"/><path d="M399.136 102.131h.11l.03 255.342v20.148c0 11.077-2.169 21.834-6.448 31.947a81.839 81.839 0 01-17.586 26.083c-7.532 7.533-16.31 13.458-26.082 17.596a81.465 81.465 0 01-25.279 6.187c-2.17.171-4.359.261-6.559.261v.04h70.103c12.665 0 24.958-2.481 36.528-7.372 11.168-4.73 21.201-11.499 29.819-20.106 8.617-8.618 15.386-18.651 20.117-29.829 4.891-11.57 7.371-23.853 7.371-36.528V184.416c-.01-56.303-45.566-101.95-101.819-102.121 10.887.07 19.705 8.918 19.705 19.836" fill="url(#prefix__paint3_linear_42_3239)"/><path d="M177.808 524.928h12.615c.582 0 1.055.472 1.055 1.054v81.693c0 .583-.473 1.055-1.055 1.055h-12.615a1.054 1.054 0 01-1.054-1.055v-81.693c0-.582.472-1.054 1.054-1.054zM214.307 567.07v-.241c0-23.461 17.957-43.337 43.216-43.337 14.141 0 23.01 3.817 31.386 10.696.452.372.512 1.045.14 1.497l-7.984 9.511a1.06 1.06 0 01-1.486.13c-6.197-5.122-12.444-8.305-22.658-8.305-15.437 0-27.178 13.528-27.178 29.567v.241c0 17.235 11.369 29.92 28.493 29.92 7.493 0 14.332-2.26 19.414-5.755.523-.362.824-.964.824-1.597l.02-21.885c0-.582.472-1.054 1.054-1.054h12.123c.582 0 1.054.472 1.054 1.054v28.021a3.325 3.325 0 01-1.255 2.602c-8.185 6.598-19.585 12.012-33.696 12.012-26.213 0-43.447-18.671-43.447-43.097M339.458 574.844l-31.657-48.279a1.056 1.056 0 01.884-1.637h14.362c.723 0 1.396.372 1.787.984l21.835 34.6a1.05 1.05 0 001.777 0l22.186-34.62a2.095 2.095 0 011.768-.974h13.769c.844 0 1.346.934.884 1.637l-31.647 47.917a3.396 3.396 0 00-.562 1.858v31.335c0 .583-.472 1.055-1.055 1.055h-12.735a1.054 1.054 0 01-1.054-1.055v-30.983c0-.653-.191-1.296-.553-1.848M408.838 524.928h11.349c.783 0 1.517.361 1.999.984l42.624 55.008c.492.632 1.506.291 1.506-.523v-54.415c0-.582.472-1.054 1.055-1.054h12.373c.583 0 1.055.472 1.055 1.054v81.693c0 .583-.472 1.055-1.055 1.055h-10.033a2.545 2.545 0 01-1.999-.974l-43.939-56.695c-.493-.633-1.507-.292-1.507.522v56.102c0 .583-.472 1.055-1.055 1.055h-12.383a1.055 1.055 0 01-1.055-1.055v-81.693c0-.582.472-1.054 1.055-1.054M133.096 577.746a.654.654 0 01.341-1.004c11.148-3.515 19.002-11.701 19.002-25.119v-.241c0-7.301-2.511-13.528-6.94-18.078-5.383-5.273-13.649-8.386-24.184-8.386H92.631c-.583 0-1.055.472-1.055 1.055v11.298c0 .583.472 1.055 1.055 1.055h27.478c10.897 0 17.355 4.911 17.355 13.89v.241c0 8.497-6.699 14-17.234 14h-17.154c-.583 0-1.055.472-1.055 1.055v10.947c0 .583.462 1.045 1.045 1.045h12.765c.813 0 1.567.391 2.039 1.054l19.112 27.107a2.477 2.477 0 002.019 1.045h14.151c.854 0 1.356-.964.854-1.667l-20.91-29.317v.02zM1.299 566.691v-.241c0-23.803 18.36-43.729 44.331-43.729 25.973 0 44.09 19.695 44.09 43.488v.241c0 23.792-18.358 43.728-44.33 43.728-25.973 0-44.091-19.695-44.091-43.487zm72.845 0v-.241c0-16.431-11.962-30.08-28.755-30.08-16.792 0-28.503 13.418-28.503 29.839v.241c0 16.431 11.962 29.959 28.754 29.959 16.793 0 28.513-13.287 28.513-29.718M67.998 668.064h16.873v6.026H67.998v15.567h-7.271v-37.893h25.048v6.026H67.998v10.284-.01zM119.127 652.669c3.404 1.537 5.343 4.259 6.076 8.688.281 1.707.402 3.917.402 8.979 0 9.089-.342 11.59-1.929 14.432-1.366 2.39-3.866 4.037-7.271 4.72-1.537.342-4.55.512-8.236.512-5.624 0-8.466-.451-10.796-1.707-3.013-1.647-4.54-4.088-5.223-8.296-.281-1.757-.341-3.575-.341-8.296 0-9.772.401-12.554 2.159-15.336 1.416-2.209 3.917-3.806 7.04-4.429 1.477-.341 4.6-.512 8.015-.512 5.393 0 7.894.341 10.114 1.245h-.01zm-19.936 19.595c0 6.649.28 8.356 1.647 9.943 1.074 1.245 2.782 1.536 8.577 1.536s7.1-.622 8.064-3.354c.683-1.878.744-2.842.744-9.943 0-5.966 0-6.136-.282-7.894-.341-2.22-1.245-3.636-2.671-4.258-1.245-.513-2.672-.623-6.93-.623-4.6 0-6.137.281-7.332 1.476-1.245 1.195-1.757 3.184-1.817 6.93v6.187zM165.202 651.764v25.219c0 4.66-.572 7.211-1.988 9.089-1.135 1.476-2.782 2.611-4.942 3.234-1.476.452-4.429.683-8.808.683-5.564 0-8.125-.281-10.334-1.246-4.088-1.757-5.394-4.489-5.394-11.359v-25.62h7.272v25.62c0 5.514 1.135 6.368 8.517 6.368 7.381 0 8.406-.794 8.406-6.649v-25.339h7.271zM209.859 689.657h-12.213L186.8 668.868c-.683-1.417-1.417-2.953-3.696-8.176l-1.246-2.671h-.231l.06 2.44c.171 3.636.171 3.917.171 7.442v21.754h-7.161v-37.893h12.153l9.882 19.203c1.417 2.842 1.879 3.806 4.43 9.26l1.476 3.123h.231l-.06-2.44c-.171-3.526-.171-3.807-.171-7.332v-21.814h7.211v37.893h.01zM219.357 651.766h18.691c5.223 0 8.517 1.024 10.676 3.234 2.722 2.782 3.636 6.026 3.636 12.604 0 10.224-.342 13.348-1.587 16.019-2.099 4.148-5.905 6.027-12.494 6.027h-18.922v-37.894.01zm17.496 31.637c3.465 0 5.393-.683 6.528-2.27 1.246-1.758 1.587-4.038 1.587-10.506s-.281-8.747-1.476-10.395c-1.085-1.536-2.843-2.159-6.197-2.159h-10.676v25.34h10.224l.01-.01zM266.572 682.386l-2.33 7.271h-7.613l12.614-37.893h10.737l12.835 37.893h-7.442l-2.44-7.271h-16.361zm8.175-25.048l-6.478 19.655h13.006l-6.528-19.655zM310.764 689.657h-7.271v-31.526h-10.968v-6.367h29.427v6.367h-11.188v31.526zM335.941 689.657h-7.271v-37.893h7.271v37.893zM371.505 652.669c3.405 1.537 5.344 4.259 6.077 8.688.281 1.707.401 3.917.401 8.979 0 9.089-.341 11.59-1.928 14.432-1.366 2.39-3.867 4.037-7.271 4.72-1.537.342-4.55.512-8.236.512-5.624 0-8.466-.451-10.796-1.707-3.013-1.647-4.54-4.088-5.223-8.296-.281-1.757-.341-3.575-.341-8.296 0-9.772.401-12.554 2.159-15.336 1.416-2.209 3.917-3.806 7.04-4.429 1.477-.341 4.6-.512 8.015-.512 5.393 0 7.894.341 10.114 1.245h-.011zm-19.936 19.595c0 6.649.282 8.356 1.647 9.943 1.075 1.245 2.783 1.536 8.578 1.536s7.1-.622 8.064-3.354c.683-1.878.744-2.842.744-9.943 0-5.966 0-6.136-.282-7.894-.341-2.22-1.245-3.636-2.671-4.258-1.246-.513-2.672-.623-6.93-.623-4.6 0-6.137.281-7.332 1.476-1.245 1.195-1.757 3.184-1.818 6.93v6.187zM421.379 689.657h-12.213l-10.847-20.789c-.683-1.417-1.416-2.953-3.696-8.176l-1.245-2.671h-.231l.06 2.44c.171 3.636.171 3.917.171 7.442v21.754h-7.161v-37.893h12.152l9.883 19.203c1.416 2.842 1.878 3.806 4.429 9.26l1.476 3.123h.231l-.06-2.44c-.171-3.526-.171-3.807-.171-7.332v-21.814h7.212v37.893h.01z" fill="#1D1C1A"/><defs><linearGradient id="prefix__paint0_linear_42_3239" x1="90.63" y1="111.612" x2="90.63" y2="377.751" gradientUnits="userSpaceOnUse"><stop offset=".03" stop-color="#076132"/><stop offset=".3" stop-color="#077F40"/><stop offset=".32" stop-color="#128541"/><stop offset=".4" stop-color="#2D9443"/><stop offset=".47" stop-color="#409F45"/><stop offset=".55" stop-color="#4CA546"/><stop offset=".63" stop-color="#50A847"/><stop offset=".74" stop-color="#57A946"/><stop offset=".9" stop-color="#6BAE43"/><stop offset=".91" stop-color="#6EAF43"/></linearGradient><linearGradient id="prefix__paint1_linear_42_3239" x1="399.283" y1="377.744" x2="40.092" y2="377.744" gradientUnits="userSpaceOnUse"><stop offset=".03" stop-color="#209BD3"/><stop offset=".3" stop-color="#1471B1"/><stop offset=".36" stop-color="#195FA1"/><stop offset=".44" stop-color="#204C90"/><stop offset=".53" stop-color="#234086"/><stop offset=".63" stop-color="#253D83"/><stop offset=".69" stop-color="#24397B"/><stop offset=".79" stop-color="#213167"/><stop offset=".91" stop-color="#1D2345"/></linearGradient><linearGradient id="prefix__paint2_linear_42_3239" x1="46.994" y1="-53.361" x2="475.344" y2="193.948" gradientUnits="userSpaceOnUse"><stop stop-color="#EBE128"/><stop offset=".44" stop-color="#F1A21F"/><stop offset=".56" stop-color="#E76522"/><stop offset=".68" stop-color="#DF3424"/><stop offset=".73" stop-color="#DC2226"/><stop offset="1" stop-color="#DA1F26"/></linearGradient><linearGradient id="prefix__paint3_linear_42_3239" x1="399.286" y1="459.735" x2="399.286" y2="82.295" gradientUnits="userSpaceOnUse"><stop stop-color="#283270"/><stop offset=".06" stop-color="#2F3271"/><stop offset=".14" stop-color="#453576"/><stop offset=".25" stop-color="#69397D"/><stop offset=".29" stop-color="#7A3C81"/><stop offset=".44" stop-color="#7F3382"/><stop offset=".66" stop-color="#842E83"/><stop offset=".97" stop-color="#57152A"/><stop offset="1" stop-color="#541323"/></linearGradient></defs></svg>