<svg width="301" height="349" viewBox="0 0 301 349" fill="none" xmlns="http://www.w3.org/2000/svg">
  <path
    d="M60.7969 97.3077H117.573C124.29 97.3077 129.717 91.8426 129.717 85.1631C129.717 78.4836 124.252 73.0186 117.573 73.0186H60.7969C54.0794 73.0186 48.6523 78.4836 48.6523 85.1631C48.6523 91.8426 54.1174 97.3077 60.7969 97.3077Z"
    fill="white" />
  <path
    d="M178.371 141.902C178.371 135.185 172.906 129.758 166.227 129.758H60.7969C54.0794 129.758 48.6523 135.223 48.6523 141.902C48.6523 148.582 54.1174 154.047 60.7969 154.047H166.227C172.944 154.047 178.371 148.582 178.371 141.902Z"
    fill="white" />
  <path
    d="M60.7969 186.493C54.0794 186.493 48.6523 191.958 48.6523 198.638C48.6523 205.317 54.1174 210.782 60.7969 210.782H125.656C132.374 210.782 137.801 205.317 137.801 198.638C137.801 191.958 132.336 186.493 125.656 186.493H60.7969Z"
    fill="white" />
  <path
    d="M158.107 324.336H44.5933C39.2042 324.336 34.0427 322.21 30.2475 318.415C26.4524 314.62 24.3271 309.458 24.3271 304.069V44.5933C24.3271 39.2041 26.4524 34.0807 30.2475 30.2475C34.0427 26.4524 39.2042 24.3271 44.5933 24.3271H154.046V85.1258C154.046 90.5149 156.171 95.6384 159.967 99.4715C163.762 103.267 168.923 105.392 174.312 105.392H243.233V174.312C243.233 181.03 248.698 186.457 255.377 186.457C262.057 186.457 267.522 180.992 267.522 174.312V100.382C267.522 92.3745 264.144 84.7462 258.224 79.395C242.17 64.7836 194.123 21.1391 178.98 7.36264C173.743 2.61867 166.95 0 159.891 0H44.5933C32.7524 0 21.4048 4.70602 13.0554 13.0554C4.70602 21.4048 0 32.7903 0 44.5933V304.069C0 315.91 4.70602 327.258 13.0554 335.607C21.4427 343.957 32.7903 348.663 44.5933 348.663H158.107C164.824 348.663 170.252 343.198 170.252 336.518C170.252 329.839 164.786 324.374 158.107 324.374V324.336ZM178.373 39.6596L223.953 81.1029H178.373V39.6596Z"
    fill="white" />
  <path
    d="M296.443 327.903L261.641 293.102C269.422 281.944 274.052 268.433 274.052 253.784C274.052 215.756 243.159 184.863 205.131 184.863C167.104 184.863 136.211 215.756 136.211 253.784C136.211 291.811 167.104 322.704 205.131 322.704C219.743 322.704 233.292 318.074 244.449 310.294L279.251 345.096C283.995 349.84 291.699 349.84 296.443 345.096C301.187 340.352 301.187 332.647 296.443 327.903ZM205.131 298.377C180.501 298.377 160.538 278.414 160.538 253.784C160.538 229.153 180.501 209.19 205.131 209.19C229.762 209.19 249.725 229.153 249.725 253.784C249.725 278.414 229.762 298.377 205.131 298.377Z"
    fill="white" />
</svg>